<svg xmlns="http://www.w3.org/2000/svg" version="1.1" xmlns:xlink="http://www.w3.org/1999/xlink" xmlns:svgjs="http://svgjs.dev/svgjs" width="1500" height="1500" viewBox="0 0 1500 1500"><g transform="matrix(1,0,0,1,-0.21332335329316265,-0.21332335329350371)"><svg viewBox="0 0 334 334" data-background-color="#ffffff" preserveAspectRatio="xMidYMid meet" height="1500" width="1500" xmlns="http://www.w3.org/2000/svg" xmlns:xlink="http://www.w3.org/1999/xlink"><g id="tight-bounds" transform="matrix(1,0,0,1,0.04749999999998522,0.04750000000001364)"><svg viewBox="0 0 333.90454557049503 333.90454557049503" height="333.90454557049503" width="333.90454557049503"><g><svg></svg></g><g><svg viewBox="0 0 333.90454557049503 333.90454557049503" height="333.90454557049503" width="333.90454557049503"><g><path d="M0 166.952c0-92.205 74.747-166.952 166.952-166.952 92.205 0 166.952 74.747 166.953 166.952 0 92.205-74.747 166.952-166.953 166.953-92.205 0-166.952-74.747-166.952-166.953zM166.952 323.227c86.308 0 156.274-69.966 156.275-156.275 0-86.308-69.966-156.274-156.275-156.274-86.308 0-156.274 69.966-156.274 156.274 0 86.308 69.966 156.274 156.274 156.275z" data-fill-palette-color="tertiary" fill="#ff2759" stroke="transparent"></path><ellipse rx="160.27418187383762" ry="160.27418187383762" cx="166.95227278524752" cy="166.95227278524752" fill="#ff2759" stroke="transparent" stroke-width="0" fill-opacity="1" data-fill-palette-color="tertiary"></ellipse></g><g transform="matrix(1,0,0,1,148.27225345126945,71.17305217166896)"><svg viewBox="0 0 37.36003866795613 191.55844122715712" height="191.55844122715712" width="37.36003866795613"><g><svg viewBox="0 0 37.36003866795613 191.55844122715712" height="191.55844122715712" width="37.36003866795613"><g><svg viewBox="0 0 37.36003866795613 191.55844122715712" height="191.55844122715712" width="37.36003866795613"><g><svg viewBox="0 0 37.36003866795613 191.55844122715712" height="191.55844122715712" width="37.36003866795613"><g id="textblocktransform"><svg viewBox="0 0 37.36003866795613 191.55844122715712" height="191.55844122715712" width="37.36003866795613" id="textblock"><g><svg viewBox="0 0 37.36003866795613 191.55844122715712" height="191.55844122715712" width="37.36003866795613"><g transform="matrix(1,0,0,1,0,0)"><svg width="37.36003866795613" viewBox="3.35 -32.102343791655 6.300000000000001 32.302343791655005" height="191.55844122715712" data-palette-color="#ffffff"><path d="M5.2-32.1Q6.95-31.95 8.25-31.18 9.55-30.4 9.55-28.85L9.55-28.85Q9.55-27.7 8.47-27.03 7.4-26.35 5.9-26.35L5.9-26.35Q4.45-26.35 3.9-27.1 3.35-27.85 3.35-28.65L3.35-28.65Q3.35-30.15 3.68-31.15 4-32.15 5.2-32.1L5.2-32.1ZM9.2-18.95L9.2-9.95 9.2-8.5Q9.2-6.55 9.33-4.83 9.45-3.1 9.65-1.35L9.65-1.35Q9.6-0.85 8.9-0.33 8.2 0.2 7.65 0.2L7.65 0.2Q6.7 0.2 5.73-0.18 4.75-0.55 4.55-1.1L4.55-1.1Q4.25-2.7 4.25-3.95L4.25-3.95Q4.25-8.05 4-13.15L4-13.15Q3.8-17.65 3.8-19.45L3.8-19.45Q3.8-20.35 4.7-21 5.6-21.65 6.6-21.65L6.6-21.65Q8.05-21.65 8.63-21 9.2-20.35 9.2-18.95L9.2-18.95Z" opacity="1" transform="matrix(1,0,0,1,0,0)" fill="#ffffff" class="wordmark-text-0" data-fill-palette-color="quaternary" id="text-0"></path></svg></g></svg></g></svg></g></svg></g><g></g></svg></g></svg></g></svg></g></svg></g><defs></defs></svg><rect width="333.90454557049503" height="333.90454557049503" fill="none" stroke="none" visibility="hidden"></rect></g></svg></g></svg>